<?xml version="1.0" encoding="UTF-8"?>
<svg id="Layer_1" data-name="Layer 1" xmlns="http://www.w3.org/2000/svg" viewBox="0 0 698.94 174.3">
  <defs>
    <style>
      .cls-1 {
        fill: #87cdd4;
      }

      .cls-1, .cls-2, .cls-3, .cls-4 {
        stroke-width: 0px;
      }

      .cls-5, .cls-4 {
        fill: #1c736e;
      }

      .cls-5, .cls-6 {
        letter-spacing: -.01em;
      }

      .cls-2 {
        fill: #117169;
      }

      .cls-3 {
        fill: #44b7b0;
      }

      .cls-7 {
        fill: none;
        stroke: #117169;
        stroke-miterlimit: 10;
        stroke-width: 5px;
      }

      .cls-8 {
        letter-spacing: -.02em;
      }

      .cls-8, .cls-6 {
        fill: #4cafaa;
      }

      .cls-9 {
        font-family: SitkaText, Sitka;
        font-size: 90px;
        font-variation-settings: 'opsz' 11, 'wght' 400;
      }
    </style>
  </defs>
  <g>
    <polygon class="cls-4" points="207.91 130.47 213.91 130.2 213.91 131.14 207.91 130.87 207.91 130.47"/>
    <path class="cls-4" d="M226,129.78c4.03-.14,8.06-.22,12.09-.33v2.44c-4.03-.11-8.06-.19-12.09-.33v-1.78Z"/>
    <polygon class="cls-4" points="250.17 129.21 262.25 129.04 262.25 132.3 250.17 132.13 250.17 129.21"/>
    <polygon class="cls-4" points="274.34 128.93 286.43 128.87 286.43 132.47 274.34 132.4 274.34 128.93"/>
    <path class="cls-4" d="M298.51,128.93l6.04.08c2.01.02,4.03.09,6.04.13v3.08c-2.01.04-4.03.11-6.04.13l-6.04.08v-3.48Z"/>
    <polygon class="cls-4" points="322.68 129.41 334.77 129.7 334.77 131.64 322.68 131.93 322.68 129.41"/>
    <path class="cls-4" d="M346.85,129.94c4.03.07,8.06.09,12.09.11v1.24c-4.03.02-8.06.03-12.09.11v-1.45Z"/>
    <polygon class="cls-4" points="371.02 130.04 383.11 129.92 383.11 131.41 371.02 131.3 371.02 130.04"/>
    <polygon class="cls-4" points="395.19 129.69 407.28 129.44 407.28 131.9 395.19 131.65 395.19 129.69"/>
    <polygon class="cls-4" points="419.36 129.17 431.45 128.99 431.45 132.34 419.36 132.17 419.36 129.17"/>
    <polygon class="cls-4" points="443.53 128.84 455.62 128.74 455.62 132.6 443.53 132.5 443.53 128.84"/>
    <polygon class="cls-4" points="467.7 128.64 479.79 128.54 479.79 132.8 467.7 132.7 467.7 128.64"/>
    <path class="cls-4" d="M491.88,128.53c4.03-.02,8.06.02,12.09.05v4.18c-4.03.03-8.06.06-12.09.05v-4.28Z"/>
    <polygon class="cls-4" points="516.05 128.66 528.13 128.81 528.13 132.53 516.05 132.68 516.05 128.66"/>
    <polygon class="cls-4" points="540.22 128.99 552.3 129.21 552.3 132.12 540.22 132.35 540.22 128.99"/>
    <path class="cls-4" d="M564.39,129.51c4.03.11,8.06.18,12.09.31v1.69c-4.03.13-8.06.21-12.09.31v-2.32Z"/>
    <polygon class="cls-4" points="588.56 130.23 594.56 130.47 594.56 130.87 588.56 131.11 588.56 130.23"/>
  </g>
  <text class="cls-9" transform="translate(201.22 117.48)"><tspan class="cls-6" x="0" y="0">Dai</tspan><tspan class="cls-8" x="137.58" y="0">l</tspan><tspan class="cls-6" x="164.28" y="0">y</tspan><tspan class="cls-5" x="211.78" y="0">Med</tspan></text>
  <g>
    <path class="cls-3" d="M173.88,68.74c-2.07-1.87-4.7-1.7-5.09-1.67h-44.84V4.41c-.08-.5-.35-1.64-1.34-2.66-1.54-1.59-3.64-1.69-4.05-1.7h-41.81c-.21-.03-3.54-.42-5.57,1.88-1.24,1.4-1.29,3-1.28,3.51v48.62c7.89-.05,13.15-.1,21.04-.14,2.58.32,14.6,2.07,22.55,12.28,4.34,5.57,5.62,11.3,6.06,14.42v34.61l4.52.12,8.55-.1h28.58s14.53-5.28,14.62-5.86v-36.5c-.01-.43-.13-2.5-1.94-4.14Z"/>
    <path class="cls-3" d="M175.82,109.38v6.31l-1.33,3.3-1.82,1.73-2.31,1.07h-2.31l-.99-.42c-.34-.77-.83-1.69-1.57-2.64-1.48-1.9-3.19-2.95-4.29-3.51"/>
  </g>
  <g>
    <path class="cls-1" d="M1.94,105.56c2.07,1.87,4.7,1.7,5.09,1.67h44.84v62.66c.08.5.35,1.64,1.34,2.66,1.54,1.59,3.64,1.69,4.05,1.7h41.81c.21.03,3.54.42,5.57-1.88,1.24-1.4,1.29-3,1.28-3.51v-48.62c-7.89.05-13.15.1-21.04.14-2.58-.32-14.6-2.07-22.55-12.28-4.34-5.57-5.62-11.3-6.06-14.42v-34.61l-4.52-.12-8.55.1H14.62S.09,64.34,0,64.92v36.5c.01.43.13,2.5,1.94,4.14Z"/>
    <path class="cls-1" d="M0,64.92v-6.31l1.33-3.3,1.82-1.73,2.31-1.07h2.31l.99.42c.34.77.83,1.69,1.57,2.64,1.48,1.9,3.19,2.95,4.29,3.51"/>
  </g>
  <g id="Outline">
    <path class="cls-7" d="M62.76,61.65c-14.06-.06-28.13-.11-42.19-.17h-2.64c-.6.05-2.77.29-4.61,2.08-1.7,1.65-2.07,3.61-2.16,4.24v39.34c.01.47.13,2.69,1.94,4.46,2.07,2.02,4.7,1.84,5.09,1.8h44.84v46.95c.08.54.35,1.76,1.34,2.87,1.54,1.71,3.64,1.82,4.05,1.84h39.39c.21.03,3.54.45,5.57-2.02,1.24-1.51,1.29-3.23,1.28-3.78v-74.7c-.36-2.7-1.43-7.65-5.04-12.47-6.62-8.82-16.63-10.34-18.77-10.61-6.57.04-13.14.08-19.71.12"/>
    <path class="cls-7" d="M123.22,113.29h33.79c.88,0,1.76,0,2.64,0,.6-.05,2.77-.29,4.61-2.08,1.7-1.65,2.07-3.61,2.16-4.24v-39.34c-.01-.47-.13-2.69-1.94-4.46-2.07-2.02-4.7-1.84-5.09-1.8-14.95,0-29.89,0-44.84,0V16.01s0-1.6,0-1.6c-.08-.54-.35-1.76-1.34-2.87-1.54-1.71-3.64-1.82-4.05-1.84h-.87s-.78,0-.78,0h-37.73c-.21-.03-3.54-.45-5.57,2.02-1.24,1.51-1.29,3.23-1.28,3.78v.26s0,45.6,0,45.6v28.84c.36,2.7,1.43,7.65,5.04,12.47,6.62,8.82,16.63,10.34,18.77,10.61,6.57-.04,13.14-.08,19.71-.12l8.23.23"/>
    <path class="cls-7" d="M40.59,9.67c1.48.07,11.05.72,17.48,8.9,5.02,6.38,5.02,13.38,4.95,15.38"/>
    <path class="cls-7" d="M143.39,113.4c1.48.07,11.05.72,17.48,8.9,5.02,6.38,5.02,13.38,4.95,15.38"/>
    <path class="cls-7" d="M34.25,61.53c-1.48-.07-11.05-.72-17.48-8.9-5.02-6.38-5.02-13.38-4.95-15.38"/>
    <path class="cls-7" d="M137.08,163.65c-1.48-.07-11.05-.72-17.48-8.9-5.02-6.38-5.02-13.38-4.95-15.38"/>
    <path class="cls-2" d="M62.66,90.41c2.63-3.53,5.67-7.24,8.56-10.56,2.86-3.92,5.91-6.92,10.97-8.03,0,0,.34.36.34.36-1.09,3.65-2.94,6.42-5.79,8.58-1.65,1.09-3.87,2.82-5.44,4.06-2.65,1.97-5.56,4.12-8.3,5.95,0,0-.34-.36-.34-.36h0Z"/>
    <g>
      <path class="cls-2" d="M68.59,107.24c1.57-1.97,3.18-3.89,4.79-5.82,1.6-1.94,3.23-3.84,4.86-5.75l4.94-5.66c1.63-1.9,3.12-3.95,4.93-5.67l3.68,3.67c-1.72,1.81-3.76,3.31-5.66,4.95l-5.65,4.96c-1.9,1.64-3.8,3.27-5.74,4.87-1.93,1.61-3.84,3.23-5.8,4.81l-.35-.35Z"/>
      <path class="cls-2" d="M88.84,83.66c1.45-1.29,2.98-2.5,4.6-3.62.8-.57,1.66-1.08,2.51-1.6.88-.49,1.75-.99,2.73-1.38l.35.35c-.39.98-.88,1.86-1.38,2.73-.51.86-1.02,1.72-1.59,2.52-1.11,1.63-2.32,3.16-3.6,4.61l-3.63-3.62Z"/>
    </g>
    <path class="cls-2" d="M83.35,114.68c2.88-3.76,6.19-7.73,9.33-11.29,3.09-4.13,6.43-7.41,11.74-8.76,0,0,.34.36.34.36-1.28,3.84-3.33,6.79-6.37,9.13-1.76,1.2-4.14,3.08-5.83,4.42-2.83,2.15-5.95,4.49-8.87,6.49,0,0-.34-.36-.34-.36h0Z"/>
    <path class="cls-2" d="M123.29,130.49c2.63-3.53,5.67-7.24,8.56-10.56,2.86-3.92,5.91-6.92,10.97-8.03,0,0,.34.36.34.36-1.09,3.65-2.94,6.42-5.79,8.58-1.65,1.09-3.87,2.82-5.44,4.06-2.65,1.97-5.56,4.12-8.3,5.95,0,0-.34-.36-.34-.36h0Z"/>
    <g>
      <path class="cls-2" d="M129.38,147.63c1.57-1.97,3.18-3.89,4.79-5.82,1.6-1.94,3.23-3.84,4.86-5.75l4.94-5.66c1.63-1.9,3.12-3.95,4.93-5.67l3.68,3.67c-1.72,1.81-3.76,3.31-5.66,4.95l-5.65,4.96c-1.9,1.64-3.8,3.27-5.74,4.87-1.93,1.61-3.84,3.23-5.8,4.81l-.35-.35Z"/>
      <path class="cls-2" d="M149.63,124.04c1.45-1.29,2.98-2.5,4.6-3.62.8-.57,1.66-1.08,2.51-1.6.88-.49,1.75-.99,2.73-1.38l.35.35c-.39.98-.88,1.86-1.38,2.73-.51.86-1.02,1.72-1.59,2.52-1.11,1.63-2.32,3.16-3.6,4.61l-3.63-3.62Z"/>
    </g>
    <g>
      <path class="cls-2" d="M29.58,46.79c1.57-1.97,3.18-3.89,4.79-5.82,1.6-1.94,3.23-3.84,4.86-5.75l4.94-5.66c1.63-1.9,3.12-3.95,4.93-5.67l3.68,3.67c-1.72,1.81-3.76,3.31-5.66,4.95l-5.65,4.96c-1.9,1.64-3.8,3.27-5.74,4.87-1.93,1.61-3.84,3.23-5.8,4.81l-.35-.35Z"/>
      <path class="cls-2" d="M49.83,23.21c1.45-1.29,2.98-2.5,4.6-3.62.8-.57,1.66-1.08,2.51-1.6.88-.49,1.75-.99,2.73-1.38l.35.35c-.39.98-.88,1.86-1.38,2.73-.51.86-1.02,1.72-1.59,2.52-1.11,1.63-2.32,3.16-3.6,4.61l-3.63-3.62Z"/>
    </g>
    <path class="cls-2" d="M45.39,52.81c2.63-3.53,5.67-7.24,8.56-10.56,2.86-3.92,5.91-6.92,10.97-8.03,0,0,.34.36.34.36-1.09,3.65-2.94,6.42-5.79,8.58-1.65,1.09-3.87,2.82-5.44,4.06-2.65,1.97-5.56,4.12-8.3,5.95,0,0-.34-.36-.34-.36h0Z"/>
  </g>
</svg>